<?xml version="1.0" encoding="utf-8"?>
<!-- Generator: Adobe Illustrator 22.1.0, SVG Export Plug-In . SVG Version: 6.00 Build 0)  -->
<svg version="1.1" id="Layer_1" xmlns="http://www.w3.org/2000/svg" xmlns:xlink="http://www.w3.org/1999/xlink" x="0px" y="0px"
	 viewBox="0 0 500 500" style="enable-background:new 0 0 500 500;" xml:space="preserve">
<style type="text/css">
	.st0{fill:#FFFFFF;}
</style>
<g>
	<path class="st0" d="M163.3,144.1c8.1,4.1,13.5,8.8,16.9,12.3c5.2,5.4,8.5,10.8,11.6,15.7c4.4,7.2,4.6,9.1,9.6,17.1
		c1.7,2.8,4.6,7.3,8.7,12.3c3,3.6,7.2,8.3,13,13.3c12.6-15.7,14.2-38.5,2.3-56C211.5,138.3,184.4,132.2,163.3,144.1z"/>
	<path class="st0" d="M208.8,221.6c-4-1-5.9-1.4-9-1.9c-3.9-0.5-9-1.4-14-3.9c-1.6-0.8-5-2.8-8.1-6.2c-4.7-5.3-6.1-11.2-7.1-15.4
		c-0.9-4-0.4-4.1-1.6-10.5c-0.9-5-2.1-9.4-2.7-11.4c-1-3.2-4.1-10.8-14.4-19.5c-14.9,15.7-17.4,40.2-4.7,58.8
		c14.6,21.6,44,27.2,65.5,12.5c0.3-0.2,0.5-0.4,0.8-0.6c-0.4-0.3-0.7-0.6-1.1-0.8C211.3,222.2,210.2,221.9,208.8,221.6z"/>
	<path class="st0" d="M259,16.7H97.6L31.5,180.4c-56.6,140.3,46.6,293.3,197.9,293.3H390l66.5-162.9
		C513.9,170.4,410.6,16.7,259,16.7z M291.6,285.8l-11.2-16.5c0,0-0.6-4.5-0.4-7c0.5-5.9,0.8-7.6,1.3-9.4c0.3-0.8,0.6-1.8,1.4-2.9
		c0.5-0.7,1-1.1,1.4-1.5l-13.5-19.9l-2.5,1.7c-2.5,1.7-5.8,1-7.5-1.4l-9.8-14.5c-0.3-0.5-1-0.6-1.5-0.3l-10.4,7.1
		c-0.5,0.3-0.6,1-0.3,1.5l1.3,1.8c0.5,0.7,0.3,1.7-0.4,2.2l-55.8,37.9c-0.7,0.5-1.7,0.3-2.2-0.4l-5.1-7.5l-2.8-4.2l0,0l-2.9-4.3
		c-0.3-0.5-1-0.6-1.5-0.3l-8.5,5.7l-5,3.4l-2,1.4l-0.1,0.1c-7.7,3.8-17.3,1.2-22.2-6.1c-4.4-6.4-3.9-14.7,0.6-20.5
		c-1.8-2.6-5.5-6.9-11-9.3c-1.2-0.5-4.1-1.7-7.9-1.8c-2.2-0.1-3,0.3-4.5,0.3c-4.4,0.1-7.9-2.7-10.6-5c-1.7-1.4-9.4-7.7-10.3-18.2
		c-0.1-0.7-0.1-1.3-0.1-2l-0.9-1.4c-1-1.4-0.6-3.4,0.8-4.4l1.3-0.9l-3.2-4.7c-1-1.4-0.6-3.4,0.8-4.4l10.1-6.9c1.4-1,3.4-0.6,4.4,0.8
		l3.2,4.7l1.3-0.9c1.4-1,3.4-0.6,4.4,0.8l1.1,1.7c0.6,0.9,1.3,1.6,2.1,2.2c3.3,2.6,7.9,2.9,11.5,0.4c2.2-1.5,3.6-3.7,4.1-6
		c2-14.1,9.1-27.3,20.7-36.9c0,0,0,0,0,0c0.3-0.3,0.8-0.6,1.2-1c1.7-1.5,3.9-3.9,5.5-7.4c0.8-1.8,3.5-7.6,1.5-13.2
		c-1.4-4-4.1-5.2-6-7.3l-22.3,0c-0.7,1.3-1.7,2.4-2.9,3.3c-0.5,0.4-1.1,0.7-1.6,0.9c-0.7,0.5-1.7,0.9-2.7,0.9l-1,0l-0.9,0l-23.4-0.1
		c-2.5,0-4.6-2-4.6-4.6l0-10.6c0-2.5,2-4.6,4.6-4.6l21.5,0.1c3.9-0.9,8.1,0.5,10.5,4c0.1,0.2,0.2,0.4,0.3,0.5l12.1,0
		c-3.8-6.9-1.9-15.6,4.7-20.1c3.6-2.4,7.7-3.1,11.6-2.3c0,0,0,0,0,0c1.1,0.2,2.8,0.6,4.8,1.3c10.1,3.7,15.6,11.4,17.2,13.7
		c1,1.5,4.9,7.4,5.8,14.2c0.4,2.9,0.6,4.7,0.1,7c-0.4,1.7-1,2.6-1,4.5c0,0.9,0,2.7,1,4.4c1.1,1.8,3,2.5,4.1,3
		c17.7,0.9,34.7,9.7,45.4,25.5c1.4,2.1,2.6,4.2,3.7,6.4l3-2c2.5-1.7,5.8-1,7.5,1.4l18.7,27.6l15-10.2c1.5-1,3.6-0.6,4.6,0.9l1.7,2.6
		l3.7-2.5l-7.6-11.1c-1.7-2.5-0.8-6,2.1-7.3c2.2-1,4.9-0.1,6.3,2l7.4,10.9l2.1-1.4c2.8-1.9,6.7-1.2,8.6,1.7l5.8,8.6
		c1.9,2.8,1.2,6.7-1.7,8.6l-2.1,1.4l7.6,11.1c1.7,2.5,0.8,6-2.1,7.3c-2.2,1-4.9,0.1-6.3-2l-7.4-10.9l-3.7,2.5l2.1,3.1
		c1,1.5,0.6,3.6-0.9,4.6l-15,10.2l14,20.7c0.5-0.2,1-0.4,1.6-0.6c1.3-0.3,2.4-0.3,3.2-0.3c1.9,0.1,3.7,0.5,9.3,2.2
		c2.3,0.7,6.3,2.9,6.3,2.9l11.2,16.6l-0.1,0.1c-5,5-11.3,10.1-18.2,14.9c-8,5.5-15.9,10-23.7,13.3L291.6,285.8z M304.8,305.3
		l-10.5-15.5c7.8-3.4,15.8-7.9,23.8-13.5c6.8-4.8,13.2-9.9,18.3-15l10.5,15.5l-0.1,0.1c-5,5-11.3,10.1-18.2,14.9
		c-7.9,5.5-15.9,10-23.7,13.3L304.8,305.3z M318.3,325.2l-10.8-15.9c7.8-3.4,15.9-8,23.8-13.5c6.8-4.8,13.2-9.9,18.3-15l10.8,15.9
		l-0.1,0.1c-5,5-11.3,10.1-18.2,14.9c-7.9,5.5-15.9,10-23.7,13.3L318.3,325.2z M396.1,392.5l-2.5,1.7c-1.1,0.7-2.5,0.4-3.3-0.6
		l-10.9-16.1c-5-2.3-13.4-6.7-13.8-7.3l-12.8-18.9l-2.2-3.3l-0.1-0.1c-2.7,0.1-6-0.2-9.7-1.1c-2.8-0.7-5.2-1.6-7.1-2.5l0,0
		c-1.4-0.7-2.7-1.5-3.9-2.5l-8.6-12.7c7.8-3.4,15.8-7.9,23.8-13.5c6.9-4.8,13.2-9.9,18.3-15l8.4,12.4c0.6,2.3,0.9,4.6,1,7
		c0,1.6,0,3.4-0.3,5.3c-0.4,3.2-1.3,6-2.2,8.3c-0.3,0.8-0.7,1.6-1,2.3l2.1,3.1l12.6,18.6c0.4,0.6,1.5,9.6,1.8,15.1l11,16.3
		C397.4,390.3,397.2,391.8,396.1,392.5z"/>
</g>
</svg>
